<svg width="1440" height="1485" viewBox="0 0 1440 1485" fill="none" xmlns="http://www.w3.org/2000/svg">
<line x1="-43.0117" y1="1420.44" x2="1468.56" y2="1420.44" stroke="black" stroke-opacity="0.1" stroke-width="1.2607"/>
<line x1="-43.0117" y1="774.961" x2="1468.56" y2="774.961" stroke="black" stroke-opacity="0.1" stroke-width="1.2607"/>
<line x1="-43.0117" y1="1097.7" x2="1468.56" y2="1097.7" stroke="black" stroke-opacity="0.1" stroke-width="1.2607"/>
<line x1="-43.0117" y1="452.223" x2="1468.56" y2="452.223" stroke="black" stroke-opacity="0.1" stroke-width="1.2607"/>
<line x1="-43.0117" y1="129.483" x2="1468.56" y2="129.483" stroke="black" stroke-opacity="0.1" stroke-width="1.2607"/>
<line x1="-43.0117" y1="1259.07" x2="1468.56" y2="1259.07" stroke="black" stroke-opacity="0.1" stroke-width="1.2607"/>
<line x1="-43.0117" y1="613.591" x2="1468.56" y2="613.591" stroke="black" stroke-opacity="0.1" stroke-width="1.2607"/>
<line x1="-43.0117" y1="936.329" x2="1468.56" y2="936.329" stroke="black" stroke-opacity="0.1" stroke-width="1.2607"/>
<line x1="-43.0117" y1="290.853" x2="1468.56" y2="290.853" stroke="black" stroke-opacity="0.1" stroke-width="1.2607"/>
<line x1="-43.0117" y1="1339.75" x2="1468.56" y2="1339.75" stroke="black" stroke-opacity="0.1" stroke-width="1.2607"/>
<line x1="-43.0117" y1="694.276" x2="1468.56" y2="694.276" stroke="black" stroke-opacity="0.1" stroke-width="1.2607"/>
<line x1="-43.0117" y1="1017.01" x2="1468.56" y2="1017.01" stroke="black" stroke-opacity="0.1" stroke-width="1.2607"/>
<line x1="-43.0117" y1="371.538" x2="1468.56" y2="371.538" stroke="black" stroke-opacity="0.1" stroke-width="1.2607"/>
<line x1="-43.0117" y1="48.7998" x2="1468.56" y2="48.7998" stroke="black" stroke-opacity="0.1" stroke-width="1.2607"/>
<line x1="-43.0117" y1="1178.38" x2="1468.56" y2="1178.38" stroke="black" stroke-opacity="0.1" stroke-width="1.2607"/>
<line x1="-43.0117" y1="532.906" x2="1468.56" y2="532.906" stroke="black" stroke-opacity="0.1" stroke-width="1.2607"/>
<line x1="-43.0117" y1="855.647" x2="1468.56" y2="855.646" stroke="black" stroke-opacity="0.1" stroke-width="1.2607"/>
<line x1="-43.0117" y1="210.168" x2="1468.56" y2="210.168" stroke="black" stroke-opacity="0.1" stroke-width="1.2607"/>
<line x1="4.26365" y1="101.119" x2="4.2636" y2="1268.52" stroke="black" stroke-opacity="0.1" stroke-width="1.2607"/>
<line x1="649.745" y1="101.119" x2="649.745" y2="1268.52" stroke="black" stroke-opacity="0.1" stroke-width="1.2607"/>
<line x1="327.004" y1="101.119" x2="327.004" y2="1268.52" stroke="black" stroke-opacity="0.1" stroke-width="1.2607"/>
<line x1="972.48" y1="101.119" x2="972.48" y2="1268.52" stroke="black" stroke-opacity="0.1" stroke-width="1.2607"/>
<line x1="1295.22" y1="101.119" x2="1295.22" y2="1268.52" stroke="black" stroke-opacity="0.1" stroke-width="1.2607"/>
<line x1="165.634" y1="101.119" x2="165.634" y2="1268.52" stroke="black" stroke-opacity="0.1" stroke-width="1.2607"/>
<line x1="811.11" y1="101.119" x2="811.11" y2="1268.52" stroke="black" stroke-opacity="0.1" stroke-width="1.2607"/>
<line x1="488.374" y1="101.119" x2="488.374" y2="1268.52" stroke="black" stroke-opacity="0.1" stroke-width="1.2607"/>
<line x1="1133.85" y1="101.119" x2="1133.85" y2="1268.52" stroke="black" stroke-opacity="0.1" stroke-width="1.2607"/>
<line x1="84.9511" y1="101.119" x2="84.9511" y2="1268.52" stroke="black" stroke-opacity="0.1" stroke-width="1.2607"/>
<line x1="730.427" y1="101.119" x2="730.427" y2="1268.52" stroke="black" stroke-opacity="0.1" stroke-width="1.2607"/>
<line x1="407.687" y1="101.119" x2="407.687" y2="1268.52" stroke="black" stroke-opacity="0.1" stroke-width="1.2607"/>
<line x1="1053.17" y1="101.119" x2="1053.17" y2="1268.52" stroke="black" stroke-opacity="0.1" stroke-width="1.2607"/>
<line x1="1375.9" y1="101.119" x2="1375.9" y2="1268.52" stroke="black" stroke-opacity="0.1" stroke-width="1.2607"/>
<line x1="246.321" y1="101.119" x2="246.321" y2="1268.52" stroke="black" stroke-opacity="0.1" stroke-width="1.2607"/>
<line x1="891.797" y1="101.119" x2="891.797" y2="1268.52" stroke="black" stroke-opacity="0.1" stroke-width="1.2607"/>
<line x1="569.057" y1="101.119" x2="569.057" y2="1268.52" stroke="black" stroke-opacity="0.1" stroke-width="1.2607"/>
<line x1="1214.53" y1="101.119" x2="1214.53" y2="1268.52" stroke="black" stroke-opacity="0.1" stroke-width="1.2607"/>
</svg>
